# xmcd
# 
# Track frame offsets:
#     150
#     28659
#     55580
#     71770
#     96741
#     114134
#     134252
#     153522
#     171032
#     198878
#     220177
#     233744
#     256357
#     277383
#     304682
#     330909
# 
# Disc length: 4522
# 
# Revision: 1
# Processed by: cddbd v1.5.2PL0 Copyright (c) Steve Scherf et al.
# Submitted via: fre:ac v1.0.17
# 
DISCID=e211a810
DTITLE=Tonke Dragt - Der Wilde Wald - CD 6
DYEAR=2005
DGENRE=Hörbuch
TTITLE0=01 Zurück Nach Osten
TTITLE1=02 Zurück Nach Osten
TTITLE2=03 Zurück Nach Osten
TTITLE3=04 Zurück Nach Osten
TTITLE4=05 Das Ende Der Schachpartie
TTITLE5=06 Das Ende Der Schachpartie
TTITLE6=07 Das Ende Der Schachpartie
TTITLE7=08 Das Ende Der Schachpartie
TTITLE8=09 Das Ende Der Schachpartie
TTITLE9=10 Die Herausforderung
TTITLE10=11 Die Herausforderung
TTITLE11=12 Die Herausforderung
TTITLE12=13 Die Herausforderung
TTITLE13=14 Am Ufer Des Flusses
TTITLE14=15 Am Ufer Des Flusses
TTITLE15=16 Am Ufer Des Flusses
EXTD=Gelesen Von Konstantin Graudus
EXTT0=
EXTT1=
EXTT2=
EXTT3=
EXTT4=
EXTT5=
EXTT6=
EXTT7=
EXTT8=
EXTT9=
EXTT10=
EXTT11=
EXTT12=
EXTT13=
EXTT14=
EXTT15=
PLAYORDER=
